TITLE ""
FILE "Step1_Track47.mp3" MP3
  TRACK 01 AUDIO
    TITLE "Step1_Track47_01"
    INDEX 01 00:00:00
  TRACK 02 AUDIO
    TITLE "Step1_Track47_02"
    INDEX 01 00:00:22
  TRACK 03 AUDIO
    TITLE "Step1_Track47_03"
    INDEX 01 00:02:07
  TRACK 04 AUDIO
    TITLE "Step1_Track47_04"
    INDEX 01 00:02:66
  TRACK 05 AUDIO
    TITLE "Step1_Track47_05"
    INDEX 01 00:03:65
  TRACK 06 AUDIO
    TITLE "Step1_Track47_06"
    INDEX 01 00:03:71
  TRACK 07 AUDIO
    TITLE "Step1_Track47_07"
    INDEX 01 00:05:51
  TRACK 08 AUDIO
    TITLE "Step1_Track47_08"
    INDEX 01 00:06:05
  TRACK 09 AUDIO
    TITLE "Step1_Track47_09"
    INDEX 01 00:07:04
  TRACK 10 AUDIO
    TITLE "Step1_Track47_10"
    INDEX 01 00:07:08
  TRACK 11 AUDIO
    TITLE "Step1_Track47_11"
    INDEX 01 00:09:50
  TRACK 12 AUDIO
    TITLE "Step1_Track47_12"
    INDEX 01 00:09:72
  TRACK 13 AUDIO
    TITLE "Step1_Track47_13"
    INDEX 01 00:10:75
  TRACK 14 AUDIO
    TITLE "Step1_Track47_14"
    INDEX 01 00:11:06
  TRACK 15 AUDIO
    TITLE "Step1_Track47_15"
    INDEX 01 00:13:36
  TRACK 16 AUDIO
    TITLE "Step1_Track47_16"
    INDEX 01 00:13:64
  TRACK 17 AUDIO
    TITLE "Step1_Track47_17"
    INDEX 01 00:14:71
  TRACK 18 AUDIO
    TITLE "Step1_Track47_18"
    INDEX 01 00:15:04
  TRACK 19 AUDIO
    TITLE "Step1_Track47_19"
    INDEX 01 00:17:62
  TRACK 20 AUDIO
    TITLE "Step1_Track47_20"
    INDEX 01 00:18:08
  TRACK 21 AUDIO
    TITLE "Step1_Track47_21"
    INDEX 01 00:19:06
  TRACK 22 AUDIO
    TITLE "Step1_Track47_22"
    INDEX 01 00:19:25
  TRACK 23 AUDIO
    TITLE "Step1_Track47_23"
    INDEX 01 00:21:52
  TRACK 24 AUDIO
    TITLE "Step1_Track47_24"
    INDEX 01 00:22:04
  TRACK 25 AUDIO
    TITLE "Step1_Track47_25"
    INDEX 01 00:23:11
  TRACK 26 AUDIO
    TITLE "Step1_Track47_26"
    INDEX 01 00:23:23
  TRACK 27 AUDIO
    TITLE "Step1_Track47_27"
    INDEX 01 00:26:16
  TRACK 28 AUDIO
    TITLE "Step1_Track47_28"
    INDEX 01 00:26:31
  TRACK 29 AUDIO
    TITLE "Step1_Track47_29"
    INDEX 01 00:27:35
  TRACK 30 AUDIO
    TITLE "Step1_Track47_30"
    INDEX 01 00:27:50
  TRACK 31 AUDIO
    TITLE "Step1_Track47_31"
    INDEX 01 00:31:32
  TRACK 32 AUDIO
    TITLE "Step1_Track47_32"
    INDEX 01 00:31:64
  TRACK 33 AUDIO
    TITLE "Step1_Track47_33"
    INDEX 01 00:32:44
  TRACK 34 AUDIO
    TITLE "Step1_Track47_34"
    INDEX 01 00:32:69
  TRACK 35 AUDIO
    TITLE "Step1_Track47_35"
    INDEX 01 00:35:64
  TRACK 36 AUDIO
    TITLE "Step1_Track47_36"
    INDEX 01 00:36:22
  TRACK 37 AUDIO
    TITLE "Step1_Track47_37"
    INDEX 01 00:37:23
  TRACK 38 AUDIO
    TITLE "Step1_Track47_38"
    INDEX 01 00:37:37
  TRACK 39 AUDIO
    TITLE "Step1_Track47_39"
    INDEX 01 00:40:55
  TRACK 40 AUDIO
    TITLE "Step1_Track47_40"
    INDEX 01 00:40:74
  TRACK 41 AUDIO
    TITLE "Step1_Track47_41"
    INDEX 01 00:41:68
  TRACK 42 AUDIO
    TITLE "Step1_Track47_42"
    INDEX 01 00:42:15
  TRACK 43 AUDIO
    TITLE "Step1_Track47_43"
    INDEX 01 00:45:42
